<svg version="1.1" id="Layer_1" xmlns="http://www.w3.org/2000/svg" xmlns:xlink="http://www.w3.org/1999/xlink" x="0px" y="0px"
	 width="100%" viewBox="0 0 612 490" enable-background="new 0 0 612 490" xml:space="preserve">
<path fill="#FFFFFF" opacity="1.000000" stroke="none" 
	d="
M327.000000,491.000000 
	C218.024612,491.000000 109.549217,491.000000 1.036911,491.000000 
	C1.036911,327.728333 1.036911,164.456635 1.036911,1.092476 
	C204.892059,1.092476 408.784149,1.092476 612.838135,1.092476 
	C612.838135,164.333206 612.838135,327.666595 612.838135,491.000000 
	C517.789978,491.000000 422.644989,491.000000 327.000000,491.000000 
M384.085205,332.136078 
	C384.085205,332.136078 384.248230,332.299316 384.863708,332.106750 
	C385.976013,331.097626 387.088287,330.088501 388.686829,328.943695 
	C388.788727,328.809814 388.890594,328.675903 389.579010,328.339203 
	C393.086273,324.888641 396.593536,321.438049 400.328857,317.763062 
	C383.532806,304.062744 367.140228,290.691528 351.475067,277.913696 
	C344.832611,281.855164 338.894226,285.378845 332.245636,288.922546 
	C331.174774,289.312683 330.103912,289.702820 328.215576,290.016022 
	C325.810516,290.416931 323.405487,290.817810 320.140778,291.111694 
	C318.411377,291.153412 316.682007,291.195129 314.327911,291.055573 
	C313.897858,291.090363 313.467773,291.125122 312.307922,290.902405 
	C309.537872,290.331757 306.767792,289.761078 303.227295,288.980896 
	C301.422241,288.347137 299.237946,288.159424 297.877350,287.002838 
	C291.781677,281.821228 285.920502,276.363708 279.835449,270.315613 
	C277.949493,266.415741 276.063538,262.515839 274.227631,258.065186 
	C274.101929,257.721588 273.976257,257.377991 273.937744,256.466278 
	C273.750549,255.944244 273.563354,255.422211 273.352692,253.980743 
	C273.168701,249.654877 272.984711,245.328995 273.021240,240.344345 
	C273.013947,239.883820 273.006622,239.423279 273.354675,238.466904 
	C273.464722,237.674713 273.574768,236.882507 273.989166,235.383331 
	C274.092865,234.623520 274.196533,233.863724 274.753784,232.597519 
	C278.468567,221.352234 285.459351,212.664658 296.533295,206.081802 
	C276.846100,198.063721 258.813995,198.603989 240.630859,209.286560 
	C236.530960,212.901260 232.431061,216.515961 227.726883,220.449844 
	C225.115982,224.626175 222.505081,228.802505 219.304916,233.415665 
	C218.217087,236.940811 217.129257,240.465942 215.615906,244.635666 
	C213.466217,254.081146 212.782608,263.561218 214.869858,273.925964 
	C215.618729,277.284729 216.367599,280.643494 217.100327,284.693268 
	C217.741577,286.108459 218.382828,287.523651 218.992340,288.985840 
	C218.992340,288.985840 219.048996,288.984497 219.066742,289.733643 
	C233.333374,324.634460 259.952393,344.613403 295.988007,352.867798 
	C309.858704,356.045013 323.923859,356.417633 338.728058,353.058807 
	C346.863068,350.392975 354.998108,347.727112 363.843109,344.989410 
	C367.613831,342.677277 371.384552,340.365143 375.678802,337.890289 
	C376.121826,337.583435 376.564850,337.276581 377.454681,337.221893 
	C378.971680,336.150330 380.488678,335.078766 382.583649,333.856598 
	C383.150726,333.321564 383.717834,332.786530 384.085205,332.136078 
M287.697052,177.160492 
	C290.138184,177.735092 292.579315,178.309677 295.616760,179.287674 
	C317.086212,186.089478 334.648468,199.085434 350.626007,214.666412 
	C357.425659,209.025284 363.815491,203.724167 370.165619,198.390274 
	C370.165619,198.390274 370.186279,198.344147 370.765533,198.222275 
	C371.170380,197.814178 371.575226,197.406082 372.624176,196.797272 
	C375.083893,194.530090 377.543610,192.262924 380.699493,190.022720 
	C384.778870,186.596207 388.858246,183.169693 393.588074,179.641312 
	C395.723724,177.886826 397.859344,176.132339 400.220856,174.192291 
	C384.750732,157.006821 366.414764,145.547287 344.502747,140.099258 
	C331.516541,136.870453 318.320618,135.631485 304.118317,137.863235 
	C299.107727,138.916748 294.097107,139.970276 288.305725,141.031372 
	C284.542908,142.382889 280.780121,143.734421 276.284302,145.103912 
	C270.188171,148.546570 264.092010,151.989227 257.449951,155.595459 
	C256.865906,155.973526 256.281860,156.351608 255.695435,156.900070 
	C255.695435,156.900070 255.643555,156.737762 255.002609,156.910858 
	C251.932175,159.427689 248.861755,161.944504 245.149765,164.760742 
	C238.329269,172.159653 231.508774,179.558548 224.688263,186.957443 
	C225.131729,187.558441 225.575195,188.159424 226.018646,188.760406 
	C236.128922,182.032349 247.194809,177.946503 259.783905,175.897476 
	C260.581024,175.747482 261.378143,175.597488 262.776215,175.640747 
	C263.579102,175.453232 264.381958,175.265717 266.028076,175.224442 
	C268.310425,175.169098 270.592743,175.113739 273.276550,175.332779 
	C273.730072,175.265930 274.183563,175.199081 275.459869,175.447952 
	C276.333923,175.490677 277.207947,175.533386 278.844666,175.850372 
	C281.564911,176.193787 284.285126,176.537201 287.697052,177.160492 
z"/>
<path fill="#B50A8E" opacity="1.000000" stroke="none" 
	d="
M375.155273,338.053040 
	C371.384552,340.365143 367.613831,342.677277 363.079163,345.009277 
	C358.568604,345.365814 354.822021,345.702515 350.930023,346.052246 
	C351.196594,344.995605 351.725647,343.757599 351.512878,343.613312 
	C348.142609,341.327271 344.806946,338.928711 341.196655,337.075439 
	C337.644379,335.251953 333.583771,334.381348 330.124115,332.424438 
	C325.998657,330.091003 322.461945,326.716766 318.336823,324.382629 
	C310.901337,320.175385 303.406433,315.967987 295.575439,312.599731 
	C289.808228,310.119171 284.232147,307.568634 278.774048,304.385956 
	C273.882996,301.533936 268.387634,299.802765 263.415405,296.645569 
	C257.296448,292.760223 250.083145,290.613678 243.401993,287.585114 
	C242.113800,287.001160 241.106964,285.804321 239.955002,284.910004 
	C238.694855,283.931732 237.528625,282.752747 236.126205,282.052063 
	C231.480408,279.731049 225.003098,280.995117 222.263504,274.900269 
	C222.099228,274.534821 221.382141,274.121704 221.009521,274.192169 
	C217.576401,274.841339 217.136566,272.011505 215.995438,269.616821 
	C215.998764,268.494293 216.001053,267.745880 216.229156,266.853394 
	C216.305359,266.141968 216.155731,265.574585 216.006561,264.591187 
	C216.422501,263.183472 217.005676,261.290985 217.228836,261.332489 
	C222.146744,262.248047 228.057846,262.084442 231.571304,264.891052 
	C234.204636,266.994568 236.666916,268.620880 239.706100,269.960083 
	C245.287094,272.419373 250.669174,275.330414 256.131592,278.058289 
	C261.445160,280.711853 266.755524,283.371887 272.067291,286.029053 
	C277.379059,288.686188 282.689423,291.346283 288.003021,293.999756 
	C293.614502,296.801880 299.188568,299.683838 304.861725,302.355225 
	C307.223785,303.467468 309.948334,303.853851 312.220032,305.096741 
	C313.475464,305.783569 314.115356,308.656006 315.066193,308.673004 
	C323.516754,308.824158 328.738464,315.917572 336.172241,318.140625 
	C338.832397,318.936127 342.044281,319.512634 343.811005,321.341705 
	C347.866394,325.540283 353.013702,327.174530 358.099213,329.241302 
	C361.371429,330.571228 365.399780,331.591431 367.397156,334.098541 
	C369.678284,336.961670 372.131927,337.609436 375.155273,338.053040 
z"/>
<path fill="#AD0895" opacity="1.000000" stroke="none" 
	d="
M215.994385,269.990936 
	C217.136566,272.011505 217.576401,274.841339 221.009521,274.192169 
	C221.382141,274.121704 222.099228,274.534821 222.263504,274.900269 
	C225.003098,280.995117 231.480408,279.731049 236.126205,282.052063 
	C237.528625,282.752747 238.694855,283.931732 239.955002,284.910004 
	C241.106964,285.804321 242.113800,287.001160 243.401993,287.585114 
	C250.083145,290.613678 257.296448,292.760223 263.415405,296.645569 
	C268.387634,299.802765 273.882996,301.533936 278.774048,304.385956 
	C284.232147,307.568634 289.808228,310.119171 295.575439,312.599731 
	C303.406433,315.967987 310.901337,320.175385 318.336823,324.382629 
	C322.461945,326.716766 325.998657,330.091003 330.124115,332.424438 
	C333.583771,334.381348 337.644379,335.251953 341.196655,337.075439 
	C344.806946,338.928711 348.142609,341.327271 351.512878,343.613312 
	C351.725647,343.757599 351.196594,344.995605 350.930023,346.052246 
	C354.822021,345.702515 358.568604,345.365814 362.724152,345.045227 
	C354.998108,347.727112 346.863068,350.392975 338.184021,352.803406 
	C338.577667,351.564606 339.515381,350.581207 340.108551,349.959137 
	C336.387054,349.494446 332.495361,349.717285 329.185791,348.436218 
	C323.632965,346.286835 318.391205,343.289673 313.133545,340.437347 
	C309.610870,338.526215 306.379120,336.077759 302.851593,334.177002 
	C298.024139,331.575714 292.991516,329.357208 288.138885,326.799896 
	C284.822174,325.051941 281.778351,322.765442 278.408752,321.142944 
	C271.323639,317.731384 264.124390,314.553070 256.928192,311.378174 
	C254.707123,310.398254 251.276031,310.423767 250.241287,308.808655 
	C246.746567,303.353729 240.941254,304.307953 236.163361,303.303284 
	C231.950577,302.417450 229.868103,301.902588 232.472809,297.914886 
	C229.290527,297.618774 226.351898,297.345337 223.208099,297.052826 
	C224.153580,292.485138 225.216904,288.511261 219.048996,288.984497 
	C219.048996,288.984497 218.992340,288.985840 219.059631,288.617981 
	C219.751938,287.208832 220.376953,286.167542 221.343765,284.556824 
	C219.538177,284.319977 218.327332,284.161133 217.116455,284.002258 
	C216.367599,280.643494 215.618729,277.284729 214.927628,273.168945 
	C215.321716,271.604950 215.658035,270.797943 215.994385,269.990936 
z"/>
<path fill="#BB0D88" opacity="1.000000" stroke="none" 
	d="
M215.995422,269.616821 
	C215.658035,270.797943 215.321716,271.604950 214.964783,272.760193 
	C212.782608,263.561218 213.466217,254.081146 216.253723,244.317154 
	C223.443359,242.085526 227.556564,247.940659 231.711639,250.477509 
	C236.342331,253.304764 241.102753,255.019608 245.897888,257.063812 
	C246.999359,257.533386 247.989975,258.371735 248.875992,259.205688 
	C249.672104,259.955048 250.105927,261.492340 250.955109,261.717285 
	C256.745972,263.251129 262.847046,263.997467 266.636475,269.585846 
	C266.949188,270.046997 268.220673,270.061798 269.005402,269.961395 
	C271.507874,269.641235 273.990936,269.168884 276.626099,268.731262 
	C276.421082,269.796906 276.209320,270.897552 275.859497,272.053040 
	C275.814911,272.072723 275.908356,272.037567 276.350098,271.999664 
	C277.790497,271.666504 278.882599,271.336151 279.974701,271.005768 
	C285.920502,276.363708 291.781677,281.821228 297.877350,287.002838 
	C299.237946,288.159424 301.422241,288.347137 303.655853,289.410400 
	C305.162811,291.012329 306.241180,292.184692 307.684265,293.753510 
	C306.854828,293.983948 306.002594,294.220703 305.150360,294.457458 
	C305.450439,294.863190 305.750488,295.268890 306.050568,295.674622 
	C311.679901,295.674622 317.309235,295.674622 323.187866,295.674622 
	C320.903107,301.970947 321.747223,303.022339 327.489685,304.105530 
	C331.517090,304.865204 336.643616,303.698120 338.739410,309.089294 
	C338.878265,309.446503 339.538940,309.648285 339.994202,309.827759 
	C345.210052,311.884064 351.498871,311.737030 355.039612,317.278900 
	C355.368317,317.793396 356.547607,317.755432 357.326080,317.993164 
	C360.892578,319.082214 364.793030,319.597351 367.937897,321.417084 
	C371.950867,323.739075 375.352936,327.116882 378.743042,329.820129 
	C378.194672,332.079651 377.601288,334.524658 377.007874,336.969727 
	C376.564850,337.276581 376.121826,337.583435 375.417053,337.971680 
	C372.131927,337.609436 369.678284,336.961670 367.397156,334.098541 
	C365.399780,331.591431 361.371429,330.571228 358.099213,329.241302 
	C353.013702,327.174530 347.866394,325.540283 343.811005,321.341705 
	C342.044281,319.512634 338.832397,318.936127 336.172241,318.140625 
	C328.738464,315.917572 323.516754,308.824158 315.066193,308.673004 
	C314.115356,308.656006 313.475464,305.783569 312.220032,305.096741 
	C309.948334,303.853851 307.223785,303.467468 304.861725,302.355225 
	C299.188568,299.683838 293.614502,296.801880 288.003021,293.999756 
	C282.689423,291.346283 277.379059,288.686188 272.067291,286.029053 
	C266.755524,283.371887 261.445160,280.711853 256.131592,278.058289 
	C250.669174,275.330414 245.287094,272.419373 239.706100,269.960083 
	C236.666916,268.620880 234.204636,266.994568 231.571304,264.891052 
	C228.057846,262.084442 222.146744,262.248047 217.228836,261.332489 
	C217.005676,261.290985 216.422501,263.183472 216.004654,264.922791 
	C216.002640,266.112762 216.002991,266.555115 216.003342,266.997437 
	C216.001053,267.745880 215.998764,268.494293 215.995422,269.616821 
M216.878967,254.213547 
	C216.767288,254.099655 216.670807,253.926849 216.538544,253.892685 
	C216.451263,253.870148 216.216476,254.042618 216.212250,254.135269 
	C216.182953,254.778168 216.196793,255.423019 216.196793,256.067230 
	C216.370209,256.069977 216.543610,256.072723 216.717026,256.075470 
	C216.800919,255.631180 216.884796,255.186874 216.878967,254.213547 
z"/>
<path fill="#A5069C" opacity="1.000000" stroke="none" 
	d="
M219.057861,289.359070 
	C225.216904,288.511261 224.153580,292.485138 223.208099,297.052826 
	C226.351898,297.345337 229.290527,297.618774 232.472809,297.914886 
	C229.868103,301.902588 231.950577,302.417450 236.163361,303.303284 
	C240.941254,304.307953 246.746567,303.353729 250.241287,308.808655 
	C251.276031,310.423767 254.707123,310.398254 256.928192,311.378174 
	C264.124390,314.553070 271.323639,317.731384 278.408752,321.142944 
	C281.778351,322.765442 284.822174,325.051941 288.138885,326.799896 
	C292.991516,329.357208 298.024139,331.575714 302.851593,334.177002 
	C306.379120,336.077759 309.610870,338.526215 313.133545,340.437347 
	C318.391205,343.289673 323.632965,346.286835 329.185791,348.436218 
	C332.495361,349.717285 336.387054,349.494446 340.108551,349.959137 
	C339.515381,350.581207 338.577667,351.564606 337.771454,352.755859 
	C323.923859,356.417633 309.858704,356.045013 295.988007,352.867798 
	C259.952393,344.613403 233.333374,324.634460 219.057861,289.359070 
z"/>
<path fill="#EF1F5E" opacity="1.000000" stroke="none" 
	d="
M370.205292,198.423035 
	C363.815491,203.724167 357.425659,209.025284 350.626007,214.666412 
	C334.648468,199.085434 317.086212,186.089478 295.229492,178.725128 
	C292.226532,177.444046 289.610840,176.725479 286.636353,175.849960 
	C284.187103,175.451614 282.096649,175.210220 279.900940,174.671478 
	C280.725861,174.019028 281.653900,173.375916 282.586548,173.369080 
	C284.495819,173.355103 286.407562,173.682816 288.318298,173.869827 
	C288.360291,173.453430 288.402283,173.037018 288.444275,172.620621 
	C287.900482,172.424362 287.359161,172.220825 286.812469,172.032944 
	C280.770630,169.956451 274.658295,168.059509 268.718597,165.723572 
	C266.218048,164.740173 263.916473,163.022110 261.862762,161.246658 
	C261.067505,160.559113 261.208221,158.788971 261.030945,157.996674 
	C259.184967,157.565308 257.414246,157.151535 255.643555,156.737762 
	C255.643555,156.737762 255.695435,156.900070 256.007141,156.878113 
	C256.877869,156.381393 257.436859,155.906647 257.995850,155.431900 
	C264.092010,151.989227 270.188171,148.546570 276.808838,145.324722 
	C277.643494,147.569901 277.953583,149.594269 278.354401,152.210831 
	C280.868011,152.670853 284.408844,152.567993 287.152863,153.996124 
	C291.322357,156.166199 294.910095,159.440277 298.815491,162.143494 
	C299.575562,162.669601 300.663818,162.711655 301.590576,163.008606 
	C304.970520,164.091736 309.390228,164.217117 311.501190,166.486511 
	C315.609955,170.903610 320.720001,172.829147 325.840332,175.160217 
	C329.239075,176.707489 332.819916,178.157013 335.733063,180.408676 
	C342.773956,185.850830 350.681580,189.756500 358.445557,193.895950 
	C362.124298,195.857315 366.270752,196.941467 370.205292,198.423035 
z"/>
<path fill="#F22555" opacity="1.000000" stroke="none" 
	d="
M370.185455,198.406647 
	C366.270752,196.941467 362.124298,195.857315 358.445557,193.895950 
	C350.681580,189.756500 342.773956,185.850830 335.733063,180.408676 
	C332.819916,178.157013 329.239075,176.707489 325.840332,175.160217 
	C320.720001,172.829147 315.609955,170.903610 311.501190,166.486511 
	C309.390228,164.217117 304.970520,164.091736 301.590576,163.008606 
	C300.663818,162.711655 299.575562,162.669601 298.815491,162.143494 
	C294.910095,159.440277 291.322357,156.166199 287.152863,153.996124 
	C284.408844,152.567993 280.868011,152.670853 278.354401,152.210831 
	C277.953583,149.594269 277.643494,147.569901 277.175354,145.315735 
	C280.780121,143.734421 284.542908,142.382889 288.986450,141.025879 
	C289.980865,141.311371 290.294525,141.602356 290.608185,141.893326 
	C295.425232,145.153549 302.940765,143.231705 306.417297,150.124023 
	C306.538330,150.363907 306.978271,150.555771 307.281616,150.574402 
	C315.772736,151.096497 321.254852,158.263275 329.016266,160.406311 
	C331.230804,161.017776 333.648651,161.459747 335.504272,162.688004 
	C339.539429,165.358902 342.936066,169.179825 347.212799,171.254410 
	C352.780731,173.955322 358.501526,175.993484 363.964264,179.290710 
	C369.501465,182.632889 376.472748,183.551971 380.003326,189.995743 
	C377.543610,192.262924 375.083893,194.530090 371.987732,196.930725 
	C370.962952,197.490845 370.574615,197.917496 370.186279,198.344147 
	C370.186279,198.344147 370.165619,198.390274 370.185455,198.406647 
z"/>
<path fill="#F32F4E" opacity="1.000000" stroke="none" 
	d="
M380.351410,190.009232 
	C376.472748,183.551971 369.501465,182.632889 363.964264,179.290710 
	C358.501526,175.993484 352.780731,173.955322 347.212799,171.254410 
	C342.936066,169.179825 339.539429,165.358902 335.504272,162.688004 
	C333.648651,161.459747 331.230804,161.017776 329.016266,160.406311 
	C321.254852,158.263275 315.772736,151.096497 307.281616,150.574402 
	C306.978271,150.555771 306.538330,150.363907 306.417297,150.124023 
	C302.940765,143.231705 295.425232,145.153549 290.608185,141.893326 
	C290.294525,141.602356 289.980865,141.311371 289.376862,141.022095 
	C294.097107,139.970276 299.107727,138.916748 304.794647,138.194504 
	C311.377625,139.030334 317.284271,139.534897 323.299011,140.048691 
	C322.817871,140.873383 322.101288,142.101654 320.826691,144.286362 
	C324.633118,143.850571 327.446167,143.528519 330.419434,143.188110 
	C330.379028,143.840332 330.302338,145.078613 330.267578,145.639420 
	C338.330261,149.590454 345.952332,153.380737 353.632385,157.049698 
	C355.515961,157.949554 358.804626,157.937775 359.353180,159.232422 
	C361.201019,163.593521 365.124878,163.448410 368.481018,164.896698 
	C371.664093,166.270309 374.437836,168.580917 377.427521,170.421082 
	C378.398468,171.018707 379.434998,171.622803 380.523804,171.895676 
	C384.478973,172.886917 388.469025,173.739014 392.469238,174.648880 
	C392.621796,176.308289 392.779694,178.025726 392.937592,179.743195 
	C388.858246,183.169693 384.778870,186.596207 380.351410,190.009232 
z"/>
<path fill="#C61381" opacity="1.000000" stroke="none" 
	d="
M321.000427,291.218689 
	C323.405487,290.817810 325.810516,290.416931 328.830963,290.297852 
	C330.616211,290.020630 331.786041,289.461578 332.955872,288.902527 
	C338.894226,285.378845 344.832611,281.855164 351.475067,277.913696 
	C367.140228,290.691528 383.532806,304.062744 400.328857,317.763062 
	C396.593536,321.438049 393.086273,324.888641 389.276520,328.088776 
	C387.493286,322.930237 385.430450,318.646271 379.510468,317.839905 
	C378.615723,317.718048 377.889465,316.460663 377.055664,315.764008 
	C375.976593,314.862366 374.993134,313.714569 373.750916,313.161957 
	C367.081879,310.195068 359.935547,308.053467 353.762939,304.297516 
	C348.917297,301.348999 344.633820,297.678009 338.771057,296.903931 
	C338.320068,296.844391 337.740051,296.591431 337.505402,296.238586 
	C333.693359,290.505615 328.238678,292.236694 322.663452,292.993835 
	C321.889648,292.995422 321.447449,292.994659 321.003326,292.698029 
	C321.001068,292.007660 321.000763,291.613190 321.000427,291.218689 
z"/>
<path fill="#F33C4C" opacity="1.000000" stroke="none" 
	d="
M393.262817,179.692245 
	C392.779694,178.025726 392.621796,176.308289 392.469238,174.648880 
	C388.469025,173.739014 384.478973,172.886917 380.523804,171.895676 
	C379.434998,171.622803 378.398468,171.018707 377.427521,170.421082 
	C374.437836,168.580917 371.664093,166.270309 368.481018,164.896698 
	C365.124878,163.448410 361.201019,163.593521 359.353180,159.232422 
	C358.804626,157.937775 355.515961,157.949554 353.632385,157.049698 
	C345.952332,153.380737 338.330261,149.590454 330.267578,145.639420 
	C330.302338,145.078613 330.379028,143.840332 330.419434,143.188110 
	C327.446167,143.528519 324.633118,143.850571 320.826691,144.286362 
	C322.101288,142.101654 322.817871,140.873383 323.299011,140.048691 
	C317.284271,139.534897 311.377625,139.030334 305.227112,138.239868 
	C318.320618,135.631485 331.516541,136.870453 344.502747,140.099258 
	C366.414764,145.547287 384.750732,157.006821 400.220856,174.192291 
	C397.859344,176.132339 395.723724,177.886826 393.262817,179.692245 
z"/>
<path fill="#C01086" opacity="1.000000" stroke="none" 
	d="
M320.570618,291.165192 
	C321.000763,291.613190 321.001068,292.007660 320.548462,292.699799 
	C317.124329,292.997437 314.153137,292.997437 311.181946,292.997437 
	C311.186737,293.329437 311.191528,293.661469 311.196320,293.993469 
	C315.324554,293.993469 319.452820,293.993469 323.581055,293.993469 
	C323.549286,293.689178 323.547333,293.376373 323.464447,293.086670 
	C323.444214,293.015961 323.158661,293.021149 322.995117,292.991455 
	C328.238678,292.236694 333.693359,290.505615 337.505402,296.238586 
	C337.740051,296.591431 338.320068,296.844391 338.771057,296.903931 
	C344.633820,297.678009 348.917297,301.348999 353.762939,304.297516 
	C359.935547,308.053467 367.081879,310.195068 373.750916,313.161957 
	C374.993134,313.714569 375.976593,314.862366 377.055664,315.764008 
	C377.889465,316.460663 378.615723,317.718048 379.510468,317.839905 
	C385.430450,318.646271 387.493286,322.930237 388.983276,328.190186 
	C388.890594,328.675903 388.788727,328.809814 388.053833,328.992676 
	C386.363281,330.127563 385.305756,331.213440 384.248230,332.299316 
	C384.248230,332.299316 384.085205,332.136078 383.838745,332.147461 
	C383.063416,332.774933 382.534546,333.391083 382.005646,334.007202 
	C380.488678,335.078766 378.971680,336.150330 377.231262,337.095795 
	C377.601288,334.524658 378.194672,332.079651 378.743042,329.820129 
	C375.352936,327.116882 371.950867,323.739075 367.937897,321.417084 
	C364.793030,319.597351 360.892578,319.082214 357.326080,317.993164 
	C356.547607,317.755432 355.368317,317.793396 355.039612,317.278900 
	C351.498871,311.737030 345.210052,311.884064 339.994202,309.827759 
	C339.538940,309.648285 338.878265,309.446503 338.739410,309.089294 
	C336.643616,303.698120 331.517090,304.865204 327.489685,304.105530 
	C321.747223,303.022339 320.903107,301.970947 323.187866,295.674622 
	C317.309235,295.674622 311.679901,295.674622 306.050568,295.674622 
	C305.750488,295.268890 305.450439,294.863190 305.150360,294.457458 
	C306.002594,294.220703 306.854828,293.983948 307.684265,293.753510 
	C306.241180,292.184692 305.162811,291.012329 304.041077,289.515167 
	C306.767792,289.761078 309.537872,290.331757 312.814697,291.227356 
	C313.865173,291.447113 314.408875,291.341949 314.952606,291.236816 
	C316.682007,291.195129 318.411377,291.153412 320.570618,291.165192 
M327.627197,295.475281 
	C327.839691,295.529816 328.052185,295.584320 328.264679,295.638824 
	C328.128174,295.504852 327.991669,295.370911 327.627197,295.475281 
z"/>
<path fill="#C7117F" opacity="1.000000" stroke="none" 
	d="
M272.800690,241.003128 
	C272.984711,245.328995 273.168701,249.654877 272.908875,254.467499 
	C266.669952,253.787781 259.712891,255.498871 256.349518,248.258148 
	C256.012573,247.532745 254.395630,247.368912 253.349930,247.011185 
	C247.047867,244.855225 240.725967,242.755692 234.453293,240.517883 
	C233.834320,240.297043 233.452530,239.299347 233.047089,238.611282 
	C231.281647,235.615189 223.556061,232.289810 219.894196,232.978851 
	C222.505081,228.802505 225.115982,224.626175 228.304855,220.428085 
	C234.035507,221.936646 239.230499,223.342102 244.317688,225.065720 
	C246.072952,225.660446 247.569534,227.032516 249.165527,228.078140 
	C250.079193,228.676697 250.942566,229.851868 251.850204,229.873825 
	C255.910858,229.972061 256.824402,232.781891 258.144684,235.838089 
	C258.889435,237.562042 261.004059,239.529510 262.754578,239.810364 
	C266.436920,240.401138 269.439026,241.082535 269.545258,246.060837 
	C270.906189,243.946472 271.853424,242.474808 272.800690,241.003128 
z"/>
<path fill="#CF1479" opacity="1.000000" stroke="none" 
	d="
M272.910950,240.673737 
	C271.853424,242.474808 270.906189,243.946472 269.545258,246.060837 
	C269.439026,241.082535 266.436920,240.401138 262.754578,239.810364 
	C261.004059,239.529510 258.889435,237.562042 258.144684,235.838089 
	C256.824402,232.781891 255.910858,229.972061 251.850204,229.873825 
	C250.942566,229.851868 250.079193,228.676697 249.165527,228.078140 
	C247.569534,227.032516 246.072952,225.660446 244.317688,225.065720 
	C239.230499,223.342102 234.035507,221.936646 228.606995,220.268494 
	C232.431061,216.515961 236.530960,212.901260 241.379517,209.161606 
	C245.380188,208.661880 248.632217,208.287109 252.124542,207.884644 
	C251.828476,208.797836 251.398575,209.841293 251.488083,209.887939 
	C258.418762,213.499451 265.390259,217.032654 272.880707,220.837067 
	C273.285217,224.332596 273.792725,228.718262 274.300232,233.103912 
	C274.196533,233.863724 274.092865,234.623520 273.635742,235.966019 
	C273.187988,237.353394 273.093658,238.158066 272.999298,238.962753 
	C273.006622,239.423279 273.013947,239.883820 272.910950,240.673737 
z"/>
<path fill="#C10F83" opacity="1.000000" stroke="none" 
	d="
M219.599548,233.197266 
	C223.556061,232.289810 231.281647,235.615189 233.047089,238.611282 
	C233.452530,239.299347 233.834320,240.297043 234.453293,240.517883 
	C240.725967,242.755692 247.047867,244.855225 253.349930,247.011185 
	C254.395630,247.368912 256.012573,247.532745 256.349518,248.258148 
	C259.712891,255.498871 266.669952,253.787781 272.920624,254.927216 
	C273.563354,255.422211 273.750549,255.944244 273.656311,256.992065 
	C273.292603,258.675293 273.210297,259.832733 273.127960,260.990173 
	C273.368958,261.006744 273.609924,261.023346 273.850891,261.039948 
	C273.959778,260.231934 274.068695,259.423950 274.177612,258.615936 
	C276.063538,262.515839 277.949493,266.415741 279.905090,270.660706 
	C278.882599,271.336151 277.790497,271.666504 276.349182,271.998444 
	C276.000000,272.000000 275.997559,271.998230 275.997559,271.998230 
	C276.209320,270.897552 276.421082,269.796906 276.626099,268.731262 
	C273.990936,269.168884 271.507874,269.641235 269.005402,269.961395 
	C268.220673,270.061798 266.949188,270.046997 266.636475,269.585846 
	C262.847046,263.997467 256.745972,263.251129 250.955109,261.717285 
	C250.105927,261.492340 249.672104,259.955048 248.875992,259.205688 
	C247.989975,258.371735 246.999359,257.533386 245.897888,257.063812 
	C241.102753,255.019608 236.342331,253.304764 231.711639,250.477509 
	C227.556564,247.940659 223.443359,242.085526 216.466492,243.994873 
	C217.129257,240.465942 218.217087,236.940811 219.599548,233.197266 
z"/>
<path fill="#D81B72" opacity="1.000000" stroke="none" 
	d="
M274.527008,232.850708 
	C273.792725,228.718262 273.285217,224.332596 272.880707,220.837067 
	C265.390259,217.032654 258.418762,213.499451 251.488083,209.887939 
	C251.398575,209.841293 251.828476,208.797836 252.124542,207.884644 
	C248.632217,208.287109 245.380188,208.661880 241.717743,209.061920 
	C258.813995,198.603989 276.846100,198.063721 296.533295,206.081802 
	C285.459351,212.664658 278.468567,221.352234 274.527008,232.850708 
z"/>
<path fill="#E81E63" opacity="1.000000" stroke="none" 
	d="
M255.323090,156.824310 
	C257.414246,157.151535 259.184967,157.565308 261.030945,157.996674 
	C261.208221,158.788971 261.067505,160.559113 261.862762,161.246658 
	C263.916473,163.022110 266.218048,164.740173 268.718597,165.723572 
	C274.658295,168.059509 280.770630,169.956451 286.812469,172.032944 
	C287.359161,172.220825 287.900482,172.424362 288.444275,172.620621 
	C288.402283,173.037018 288.360291,173.453430 288.318298,173.869827 
	C286.407562,173.682816 284.495819,173.355103 282.586548,173.369080 
	C281.653900,173.375916 280.725861,174.019028 279.640137,174.686218 
	C279.017059,175.190903 278.549530,175.383514 278.082001,175.576111 
	C277.207947,175.533386 276.333923,175.490677 274.834442,175.235855 
	C273.764374,175.035309 273.319733,175.046860 272.875092,175.058411 
	C270.592743,175.113739 268.310425,175.169098 265.293152,175.119415 
	C263.763916,175.158752 262.969574,175.303131 262.175262,175.447510 
	C261.378143,175.597488 260.581024,175.747482 259.155334,175.616028 
	C256.507904,174.953812 254.488998,174.573044 251.950226,174.094223 
	C255.015564,172.761688 257.557037,171.656876 261.496643,169.944290 
	C258.528137,169.944290 256.924072,170.338303 255.634506,169.868668 
	C252.102783,168.582550 246.901672,170.158539 245.791321,164.461334 
	C248.861755,161.944504 251.932175,159.427689 255.323090,156.824310 
M256.517731,160.410797 
	C256.517731,160.410797 256.585266,160.523331 256.517731,160.410797 
z"/>
<path fill="#E0236E" opacity="1.000000" stroke="none" 
	d="
M245.470535,164.611023 
	C246.901672,170.158539 252.102783,168.582550 255.634506,169.868668 
	C256.924072,170.338303 258.528137,169.944290 261.496643,169.944290 
	C257.557037,171.656876 255.015564,172.761688 251.950226,174.094223 
	C254.488998,174.573044 256.507904,174.953812 258.748535,175.578583 
	C247.194809,177.946503 236.128922,182.032349 226.018646,188.760406 
	C225.575195,188.159424 225.131729,187.558441 224.688263,186.957443 
	C231.508774,179.558548 238.329269,172.159653 245.470535,164.611023 
z"/>
<path fill="#E0236E" opacity="1.000000" stroke="none" 
	d="
M278.463318,175.713242 
	C278.549530,175.383514 279.017059,175.190903 279.745361,174.983566 
	C282.096649,175.210220 284.187103,175.451614 286.639404,176.068329 
	C287.001190,176.443680 287.005371,176.880630 287.005371,176.880615 
	C284.285126,176.537201 281.564911,176.193787 278.463318,175.713242 
z"/>
<path fill="#A5069C" opacity="1.000000" stroke="none" 
	d="
M217.108398,284.347778 
	C218.327332,284.161133 219.538177,284.319977 221.343765,284.556824 
	C220.376953,286.167542 219.751938,287.208832 219.075500,288.594482 
	C218.382828,287.523651 217.741577,286.108459 217.108398,284.347778 
z"/>
<path fill="#E81E63" opacity="1.000000" stroke="none" 
	d="
M287.351196,177.020569 
	C287.005371,176.880630 287.001190,176.443680 286.998169,176.225311 
	C289.610840,176.725479 292.226532,177.444046 294.931335,178.523438 
	C292.579315,178.309677 290.138184,177.735092 287.351196,177.020569 
z"/>
<path fill="#C61381" opacity="1.000000" stroke="none" 
	d="
M384.555969,332.203033 
	C385.305756,331.213440 386.363281,330.127563 387.810669,329.060516 
	C387.088287,330.088501 385.976013,331.097626 384.555969,332.203033 
z"/>
<path fill="#C01086" opacity="1.000000" stroke="none" 
	d="
M332.600769,288.912537 
	C331.786041,289.461578 330.616211,290.020630 329.239685,290.336304 
	C330.103912,289.702820 331.174774,289.312683 332.600769,288.912537 
z"/>
<path fill="#C7117F" opacity="1.000000" stroke="none" 
	d="
M274.202606,258.340576 
	C274.068695,259.423950 273.959778,260.231934 273.850891,261.039948 
	C273.609924,261.023346 273.368958,261.006744 273.127960,260.990173 
	C273.210297,259.832733 273.292603,258.675293 273.612732,257.276123 
	C273.976257,257.377991 274.101929,257.721588 274.202606,258.340576 
z"/>
<path fill="#E81E63" opacity="1.000000" stroke="none" 
	d="
M257.722900,155.513672 
	C257.436859,155.906647 256.877869,156.381393 256.008331,156.792908 
	C256.281860,156.351608 256.865906,155.973526 257.722900,155.513672 
z"/>
<path fill="#C61381" opacity="1.000000" stroke="none" 
	d="
M382.294647,333.931885 
	C382.534546,333.391083 383.063416,332.774933 383.938629,332.205170 
	C383.717834,332.786530 383.150726,333.321564 382.294647,333.931885 
z"/>
<path fill="#E0236E" opacity="1.000000" stroke="none" 
	d="
M262.475739,175.544128 
	C262.969574,175.303131 263.763916,175.158752 264.871521,175.046295 
	C264.381958,175.265717 263.579102,175.453232 262.475739,175.544128 
z"/>
<path fill="#D81B72" opacity="1.000000" stroke="none" 
	d="
M273.177002,238.714828 
	C273.093658,238.158066 273.187988,237.353394 273.483582,236.319519 
	C273.574768,236.882507 273.464722,237.674713 273.177002,238.714828 
z"/>
<path fill="#C61381" opacity="1.000000" stroke="none" 
	d="
M314.640259,291.146179 
	C314.408875,291.341949 313.865173,291.447113 313.179565,291.356079 
	C313.467773,291.125122 313.897858,291.090363 314.640259,291.146179 
z"/>
<path fill="#EF1F5E" opacity="1.000000" stroke="none" 
	d="
M370.475891,198.283218 
	C370.574615,197.917496 370.962952,197.490845 371.665680,197.031097 
	C371.575226,197.406082 371.170380,197.814178 370.475891,198.283218 
z"/>
<path fill="#E0236E" opacity="1.000000" stroke="none" 
	d="
M273.075806,175.195587 
	C273.319733,175.046860 273.764374,175.035309 274.423035,175.078003 
	C274.183563,175.199081 273.730072,175.265930 273.075806,175.195587 
z"/>
<path fill="#AD0895" opacity="1.000000" stroke="none" 
	d="
M216.229156,266.853394 
	C216.002991,266.555115 216.002640,266.112762 216.004196,265.338837 
	C216.155731,265.574585 216.305359,266.141968 216.229156,266.853394 
z"/>
<path fill="#B50A8E" opacity="1.000000" stroke="none" 
	d="
M216.923828,254.478058 
	C216.884796,255.186874 216.800919,255.631180 216.717026,256.075470 
	C216.543610,256.072723 216.370209,256.069977 216.196793,256.067230 
	C216.196793,255.423019 216.182953,254.778168 216.212250,254.135269 
	C216.216476,254.042618 216.451263,253.870148 216.538544,253.892685 
	C216.670807,253.926849 216.767288,254.099655 216.923828,254.478058 
z"/>
<path fill="#C10F83" opacity="1.000000" stroke="none" 
	d="
M276.000916,272.001221 
	C275.908356,272.037567 275.814911,272.072723 275.859497,272.053040 
	C275.997559,271.998230 276.000000,272.000000 276.000916,272.001221 
z"/>
<path fill="#BB0D88" opacity="1.000000" stroke="none" 
	d="
M322.663452,292.993805 
	C323.158661,293.021149 323.444214,293.015961 323.464447,293.086670 
	C323.547333,293.376373 323.549286,293.689178 323.581055,293.993469 
	C319.452820,293.993469 315.324554,293.993469 311.196320,293.993469 
	C311.191528,293.661469 311.186737,293.329437 311.181946,292.997437 
	C314.153137,292.997437 317.124329,292.997437 320.550415,292.995667 
	C321.447449,292.994659 321.889648,292.995422 322.663452,292.993805 
z"/>
<path fill="#BB0D88" opacity="1.000000" stroke="none" 
	d="
M327.741180,295.356110 
	C327.991669,295.370911 328.128174,295.504852 328.264679,295.638824 
	C328.052185,295.584320 327.839691,295.529816 327.741180,295.356110 
z"/>
<path fill="#EF1F5E" opacity="1.000000" stroke="none" 
	d="
M256.551514,160.467072 
	C256.585266,160.523331 256.517731,160.410797 256.551514,160.467072 
z"/>
</svg>